<svg width="1439" height="661" viewBox="0 0 1439 661" fill="none" xmlns="http://www.w3.org/2000/svg">
<rect width="1439" height="661" fill="#F5F5F5"/>
<g clip-path="url(#clip0_157_2)">
<rect width="1440" height="4096" transform="translate(-1 -94)" fill="white"/>
<rect y="-94" width="1440" height="110" fill="white" fill-opacity="0.74"/>
<g clip-path="url(#clip1_157_2)">
<path d="M-1.33352 655.609L-1.58328 102.12C-1.58328 102.12 101.172 136.384 219.913 102.194C338.654 68.0053 398.902 86.9107 564.332 146.192C729.762 205.474 807.875 91.9459 1045 136.712C1282.12 181.478 1250.81 34.7865 1438.77 102.619C1438.81 184.918 1439.01 592.45 1439.04 656.111C1294.17 656.06 -1.33352 655.609 -1.33352 655.609Z" fill="url(#paint0_linear_157_2)"/>
</g>
<path d="M0 0H1440V521C1440 598.32 1377.32 661 1300 661H140C62.6801 661 0 598.32 0 521V0Z" fill="url(#paint1_linear_157_2)"/>
</g>
<defs>
<linearGradient id="paint0_linear_157_2" x1="1401.15" y1="711.485" x2="161.857" y2="-136.687" gradientUnits="userSpaceOnUse">
<stop stop-color="#185E8B"/>
<stop offset="1" stop-color="#3299DB" stop-opacity="0.81"/>
</linearGradient>
<linearGradient id="paint1_linear_157_2" x1="720" y1="721.464" x2="720" y2="-73.5041" gradientUnits="userSpaceOnUse">
<stop stop-color="#821515"/>
<stop offset="1" stop-color="#EA4040" stop-opacity="0.83"/>
</linearGradient>
<clipPath id="clip0_157_2">
<rect width="1440" height="4096" fill="white" transform="translate(-1 -94)"/>
</clipPath>
<clipPath id="clip1_157_2">
<path d="M1439 515C1439 592.32 1376.32 655 1299 655L139 655C61.6802 655 -1 592.32 -1 515V82L1439 82V515Z" fill="white"/>
</clipPath>
</defs>
</svg>
