<svg width="1440" height="760" viewBox="0 0 1440 760" fill="none" xmlns="http://www.w3.org/2000/svg">
<mask id="mask0_657_1037" style="mask-type:alpha" maskUnits="userSpaceOnUse" x="0" y="0" width="1441" height="690">
<g clip-path="url(#clip0_657_1037)">
<path d="M1440.33 -0.732977L1440.58 665.002C1440.58 665.002 1337.83 623.789 1219.09 664.912C1100.35 706.034 1040.1 683.295 874.669 611.991C709.239 540.688 631.125 677.239 394 623.394C156.876 569.55 188.195 745.99 0.227165 664.402C0.186889 565.413 -0.0125308 75.2349 -0.0436883 -1.33556C144.834 -1.27495 1440.33 -0.732977 1440.33 -0.732977Z" fill="url(#paint0_linear_657_1037)"/>
</g>
</mask>
<g mask="url(#mask0_657_1037)">
<path d="M1440 689.202L0.000244141 689.202L0.000213779 271.6C0.000204776 147.759 0.000200274 85.8382 36.4518 45.7784C39.4125 42.5247 42.5248 39.4124 45.7784 36.4518C85.8383 0.000142351 147.759 0.000135842 271.6 0.000122824L1168.4 2.8551e-05C1292.24 1.55326e-05 1354.16 9.02342e-06 1394.22 36.4517C1397.48 39.4123 1400.59 42.5246 1403.55 45.7783C1440 85.8381 1440 147.759 1440 271.6L1440 689.202Z" fill="url(#paint1_linear_657_1037)"/>
</g>
<mask id="mask1_657_1037" style="mask-type:alpha" maskUnits="userSpaceOnUse" x="0" y="117" width="1440" height="643">
<g clip-path="url(#clip1_657_1037)">
<path d="M-0.333766 760.683L-0.583537 140.308C-0.583537 140.308 102.172 178.712 220.913 140.392C339.654 102.071 399.901 123.261 565.331 189.706C730.762 256.152 808.875 128.905 1046 179.081C1283.12 229.256 1251.81 64.8379 1439.77 140.867C1439.81 233.111 1440.01 689.891 1440.04 761.245C1295.17 761.188 -0.333766 760.683 -0.333766 760.683Z" fill="url(#paint2_linear_657_1037)"/>
</g>
</mask>
<g mask="url(#mask1_657_1037)">
<path d="M0.00012207 117.757L1440 117.757L1440 620C1440 697.32 1377.32 760 1300 760L140 760C62.6802 760 9.71539e-05 697.32 0.000100478 620L0.00012207 117.757Z" fill="url(#paint3_linear_657_1037)"/>
</g>
<defs>
<linearGradient id="paint0_linear_657_1037" x1="37.8547" y1="-67.9396" x2="1412.55" y2="714.274" gradientUnits="userSpaceOnUse">
<stop stop-color="#185E8B"/>
<stop offset="1" stop-color="#3299DB" stop-opacity="0.81"/>
</linearGradient>
<linearGradient id="paint1_linear_657_1037" x1="720" y1="-63.0431" x2="730.362" y2="1117.6" gradientUnits="userSpaceOnUse">
<stop stop-color="#8D0A0A"/>
<stop offset="1" stop-color="#E51818" stop-opacity="0.99"/>
</linearGradient>
<linearGradient id="paint2_linear_657_1037" x1="1402.15" y1="823.311" x2="76.5956" y2="13.912" gradientUnits="userSpaceOnUse">
<stop stop-color="#185E8B"/>
<stop offset="1" stop-color="#3299DB" stop-opacity="0.81"/>
</linearGradient>
<linearGradient id="paint3_linear_657_1037" x1="720" y1="818.748" x2="711.002" y2="-281.462" gradientUnits="userSpaceOnUse">
<stop stop-color="#8D0A0A"/>
<stop offset="1" stop-color="#E51818" stop-opacity="0.99"/>
</linearGradient>
<clipPath id="clip0_657_1037">
<path d="M0.000389955 271.6C0.000379128 147.759 0.000373715 85.8383 36.452 45.7785C39.4126 42.5248 42.5249 39.4125 45.7786 36.4519C85.8385 0.000236636 147.759 0.000231223 271.6 0.000220397L1168.4 0.000141996C1292.24 0.000131169 1354.16 0.000125756 1394.22 36.4518C1397.48 39.4124 1400.59 42.5247 1403.55 45.7784C1440 85.8382 1440 147.759 1440 271.6L1440 689.202L0.000426463 689.202L0.000389955 271.6Z" fill="white"/>
</clipPath>
<clipPath id="clip1_657_1037">
<path d="M1440 620C1440 697.32 1377.32 760 1300 760L140 760C62.6801 760 -5.39148e-06 697.32 -1.20422e-05 620L-5.5243e-05 117.757L1440 117.757L1440 620Z" fill="white"/>
</clipPath>
</defs>
</svg>
