<svg width="114" height="109" viewBox="0 0 114 109" fill="none" xmlns="http://www.w3.org/2000/svg">
<path d="M108.3 10.9H91.2V5.45C91.2 4.00457 90.5995 2.61834 89.5305 1.59627C88.4615 0.574195 87.0117 0 85.5 0H28.5C26.9883 0 25.5384 0.574195 24.4695 1.59627C23.4005 2.61834 22.8 4.00457 22.8 5.45V10.9H5.7C4.18827 10.9 2.73845 11.4742 1.66949 12.4963C0.600534 13.5183 0 14.9046 0 16.35V32.7C0 38.4817 2.40214 44.0266 6.67797 48.1149C10.9538 52.2032 16.7531 54.5 22.8 54.5H31.578C36.7338 59.9998 43.6851 63.6688 51.3 64.9095V76.3H45.6C41.0648 76.3 36.7153 78.0226 33.5085 81.0888C30.3016 84.155 28.5 88.3137 28.5 92.65V103.55C28.5 104.995 29.1005 106.382 30.1695 107.404C31.2384 108.426 32.6883 109 34.2 109H79.8C81.3117 109 82.7616 108.426 83.8305 107.404C84.8995 106.382 85.5 104.995 85.5 103.55V92.65C85.5 88.3137 83.6984 84.155 80.4915 81.0888C77.2847 78.0226 72.9352 76.3 68.4 76.3H62.7V64.9095C70.3148 63.6688 77.2661 59.9998 82.422 54.5H91.2C97.2469 54.5 103.046 52.2032 107.322 48.1149C111.598 44.0266 114 38.4817 114 32.7V16.35C114 14.9046 113.399 13.5183 112.331 12.4963C111.262 11.4742 109.812 10.9 108.3 10.9ZM22.8 43.6C19.7765 43.6 16.8769 42.4516 14.739 40.4075C12.6011 38.3633 11.4 35.5909 11.4 32.7V21.8H22.8V32.7C22.8125 36.4153 23.4872 40.1014 24.795 43.6H22.8ZM68.4 87.2C69.9117 87.2 71.3615 87.7742 72.4305 88.7963C73.4995 89.8183 74.1 91.2046 74.1 92.65V98.1H39.9V92.65C39.9 91.2046 40.5005 89.8183 41.5695 88.7963C42.6384 87.7742 44.0883 87.2 45.6 87.2H68.4ZM79.8 32.7C79.8 38.4817 77.3979 44.0266 73.122 48.1149C68.8462 52.2032 63.0469 54.5 57 54.5C50.9531 54.5 45.1538 52.2032 40.878 48.1149C36.6021 44.0266 34.2 38.4817 34.2 32.7V10.9H79.8V32.7ZM102.6 32.7C102.6 35.5909 101.399 38.3633 99.261 40.4075C97.1231 42.4516 94.2235 43.6 91.2 43.6H89.205C90.5128 40.1014 91.1874 36.4153 91.2 32.7V21.8H102.6V32.7Z" fill="url(#paint0_linear_36_3)"/>
<defs>
<linearGradient id="paint0_linear_36_3" x1="4.08721" y1="40.9265" x2="87.448" y2="112.552" gradientUnits="userSpaceOnUse">
<stop stop-color="#D70F0F"/>
<stop offset="1" stop-color="#1E2029"/>
</linearGradient>
</defs>
</svg>
