<svg width="129" height="100" viewBox="0 0 129 100" fill="none" xmlns="http://www.w3.org/2000/svg">
<path d="M66.3492 51.2941C69.4821 48.5773 71.995 45.217 73.7173 41.4413C75.4396 37.6657 76.331 33.563 76.3309 29.4118C76.3309 21.6113 73.2378 14.1303 67.7321 8.61451C62.2264 3.09873 54.7591 1.05242e-06 46.9729 1.05242e-06C39.1866 1.05242e-06 31.7193 3.09873 26.2136 8.61451C20.7079 14.1303 17.6148 21.6113 17.6148 29.4118C17.6148 33.563 18.5061 37.6657 20.2284 41.4413C21.9507 45.217 24.4636 48.5773 27.5966 51.2941C19.3771 55.0228 12.4036 61.0443 7.50967 68.6385C2.61577 76.2327 0.00864216 85.0783 0 94.1176C0 95.6777 0.618614 97.1739 1.71975 98.2771C2.82089 99.3803 4.31436 100 5.87161 100C7.42886 100 8.92232 99.3803 10.0235 98.2771C11.1246 97.1739 11.7432 95.6777 11.7432 94.1176C11.7432 84.7571 15.4549 75.7799 22.0617 69.1609C28.6686 62.542 37.6294 58.8235 46.9729 58.8235C56.3164 58.8235 65.2772 62.542 71.884 69.1609C78.4908 75.7799 82.2025 84.7571 82.2025 94.1176C82.2025 95.6777 82.8211 97.1739 83.9223 98.2771C85.0234 99.3803 86.5169 100 88.0741 100C89.6314 100 91.1249 99.3803 92.226 98.2771C93.3271 97.1739 93.9457 95.6777 93.9457 94.1176C93.9371 85.0783 91.33 76.2327 86.4361 68.6385C81.5422 61.0443 74.5686 55.0228 66.3492 51.2941ZM46.9729 47.0588C43.489 47.0588 40.0833 46.0238 37.1866 44.0848C34.2899 42.1457 32.0321 39.3896 30.6989 36.165C29.3657 32.9404 29.0168 29.3922 29.6965 25.969C30.3762 22.5458 32.0538 19.4014 34.5173 16.9334C36.9808 14.4654 40.1194 12.7847 43.5364 12.1038C46.9533 11.4229 50.4951 11.7723 53.7138 13.108C56.9325 14.4437 59.6835 16.7055 61.6191 19.6076C63.5546 22.5096 64.5877 25.9215 64.5877 29.4118C64.5877 34.0921 62.7319 38.5807 59.4284 41.8901C56.125 45.1996 51.6446 47.0588 46.9729 47.0588ZM104.162 48.9412C107.92 44.7019 110.375 39.465 111.231 33.8608C112.087 28.2566 111.308 22.524 108.987 17.3529C106.667 12.1819 102.905 7.79291 98.1526 4.71425C93.4006 1.63559 87.8616 -0.00151529 82.2025 1.05242e-06C80.6453 1.05242e-06 79.1518 0.619747 78.0507 1.7229C76.9495 2.82606 76.3309 4.32226 76.3309 5.88235C76.3309 7.44245 76.9495 8.93865 78.0507 10.0418C79.1518 11.145 80.6453 11.7647 82.2025 11.7647C86.8743 11.7647 91.3547 13.6239 94.6581 16.9334C97.9615 20.2429 99.8174 24.7315 99.8174 29.4118C99.8091 32.5014 98.9912 35.5347 97.4456 38.2084C95.9 40.882 93.6808 43.1022 91.0099 44.6471C90.1394 45.1501 89.4123 45.8686 88.8983 46.7338C88.3843 47.5989 88.1005 48.5818 88.0741 49.5882C88.0496 50.5868 88.2793 51.5753 88.7415 52.4603C89.2038 53.3454 89.8834 54.098 90.7164 54.6471L93.0063 56.1765L93.7696 56.5882C100.847 59.9513 106.818 65.2705 110.979 71.9195C115.14 78.5685 117.318 86.2702 117.256 94.1176C117.256 95.6777 117.875 97.1739 118.976 98.2771C120.077 99.3803 121.57 100 123.128 100C124.685 100 126.178 99.3803 127.28 98.2771C128.381 97.1739 128.999 95.6777 128.999 94.1176C129.047 85.0908 126.79 76.2015 122.443 68.2945C118.096 60.3875 111.803 53.7254 104.162 48.9412Z" fill="url(#paint0_linear_37_6)"/>
<defs>
<linearGradient id="paint0_linear_37_6" x1="29.025" y1="6.66666" x2="107.186" y2="97.8006" gradientUnits="userSpaceOnUse">
<stop stop-color="#D70F0F"/>
<stop offset="1" stop-color="#1E2029"/>
</linearGradient>
</defs>
</svg>
