<svg width="38" height="38" viewBox="0 0 38 38" fill="none" xmlns="http://www.w3.org/2000/svg">
<path d="M32.3 0H5.7C4.18827 0 2.73845 0.600526 1.66949 1.66947C0.600534 2.73841 0 4.18821 0 5.69992V24.6997C0 26.2114 0.600534 27.6612 1.66949 28.7301C2.73845 29.799 4.18827 30.3996 5.7 30.3996H27.721L34.751 37.4485C34.9285 37.6246 35.1391 37.7639 35.3706 37.8584C35.6021 37.953 35.8499 38.0009 36.1 37.9995C36.3492 38.0059 36.5965 37.9538 36.822 37.8475C37.169 37.7049 37.466 37.4629 37.6756 37.1518C37.8853 36.8408 37.9981 36.4746 38 36.0995V5.69992C38 4.18821 37.3995 2.73841 36.3305 1.66947C35.2616 0.600526 33.8117 0 32.3 0ZM34.2 31.5206L29.849 27.1506C29.6715 26.9745 29.4609 26.8352 29.2294 26.7407C28.9979 26.6461 28.7501 26.5982 28.5 26.5996H5.7C5.19609 26.5996 4.71282 26.3995 4.3565 26.0431C4.00018 25.6868 3.8 25.2036 3.8 24.6997V5.69992C3.8 5.19602 4.00018 4.71275 4.3565 4.35644C4.71282 4.00012 5.19609 3.79995 5.7 3.79995H32.3C32.8039 3.79995 33.2872 4.00012 33.6435 4.35644C33.9998 4.71275 34.2 5.19602 34.2 5.69992V31.5206Z" fill="url(#paint0_linear_531_4144)"/>
<defs>
<linearGradient id="paint0_linear_531_4144" x1="5.58824" y1="-2.60488e-07" x2="43.2269" y2="36.7234" gradientUnits="userSpaceOnUse">
<stop stop-color="#D70F0F"/>
<stop offset="1" stop-color="#1E2029"/>
</linearGradient>
</defs>
</svg>
