<svg width="34" height="40" viewBox="0 0 34 40" fill="none" xmlns="http://www.w3.org/2000/svg">
<path d="M17 25.4545C19.2543 25.4545 21.4163 24.6883 23.0104 23.3244C24.6045 21.9605 25.5 20.1107 25.5 18.1818V7.27273C25.5 5.34388 24.6045 3.49403 23.0104 2.13013C21.4163 0.766232 19.2543 0 17 0C14.7457 0 12.5837 0.766232 10.9896 2.13013C9.39553 3.49403 8.5 5.34388 8.5 7.27273V18.1818C8.5 20.1107 9.39553 21.9605 10.9896 23.3244C12.5837 24.6883 14.7457 25.4545 17 25.4545ZM12.75 7.27273C12.75 6.3083 13.1978 5.38338 13.9948 4.70143C14.7918 4.01948 15.8728 3.63636 17 3.63636C18.1272 3.63636 19.2082 4.01948 20.0052 4.70143C20.8022 5.38338 21.25 6.3083 21.25 7.27273V18.1818C21.25 19.1462 20.8022 20.0712 20.0052 20.7531C19.2082 21.4351 18.1272 21.8182 17 21.8182C15.8728 21.8182 14.7918 21.4351 13.9948 20.7531C13.1978 20.0712 12.75 19.1462 12.75 18.1818V7.27273ZM34 18.1818C34 17.6996 33.7761 17.2371 33.3776 16.8962C32.9791 16.5552 32.4386 16.3636 31.875 16.3636C31.3114 16.3636 30.7709 16.5552 30.3724 16.8962C29.9739 17.2371 29.75 17.6996 29.75 18.1818C29.75 21.0751 28.4067 23.8499 26.0156 25.8957C23.6245 27.9416 20.3815 29.0909 17 29.0909C13.6185 29.0909 10.3755 27.9416 7.98439 25.8957C5.5933 23.8499 4.25 21.0751 4.25 18.1818C4.25 17.6996 4.02612 17.2371 3.6276 16.8962C3.22909 16.5552 2.68859 16.3636 2.125 16.3636C1.56141 16.3636 1.02091 16.5552 0.622398 16.8962C0.223884 17.2371 0 17.6996 0 18.1818C0.00375231 21.7224 1.51666 25.1402 4.25509 27.7945C6.99353 30.4488 10.7695 32.1574 14.875 32.6V36.3636H10.625C10.0614 36.3636 9.52091 36.5552 9.1224 36.8962C8.72388 37.2371 8.5 37.6996 8.5 38.1818C8.5 38.664 8.72388 39.1265 9.1224 39.4675C9.52091 39.8084 10.0614 40 10.625 40H23.375C23.9386 40 24.4791 39.8084 24.8776 39.4675C25.2761 39.1265 25.5 38.664 25.5 38.1818C25.5 37.6996 25.2761 37.2371 24.8776 36.8962C24.4791 36.5552 23.9386 36.3636 23.375 36.3636H19.125V32.6C23.2305 32.1574 27.0065 30.4488 29.7449 27.7945C32.4833 25.1402 33.9962 21.7224 34 18.1818Z" fill="url(#paint0_linear_531_4146)"/>
<defs>
<linearGradient id="paint0_linear_531_4146" x1="9.10714" y1="4.10256" x2="26.15" y2="44.7096" gradientUnits="userSpaceOnUse">
<stop stop-color="#D70F0F"/>
<stop offset="1" stop-color="#1E2029"/>
</linearGradient>
</defs>
</svg>
