<svg width="89" height="106" viewBox="0 0 89 106" fill="none" xmlns="http://www.w3.org/2000/svg">
<path d="M44.5 67.4545C50.4011 67.4545 56.0604 65.424 60.2331 61.8097C64.4058 58.1954 66.75 53.2933 66.75 48.1818V19.2727C66.75 14.1613 64.4058 9.25919 60.2331 5.64485C56.0604 2.03051 50.4011 0 44.5 0C38.5989 0 32.9396 2.03051 28.7669 5.64485C24.5942 9.25919 22.25 14.1613 22.25 19.2727V48.1818C22.25 53.2933 24.5942 58.1954 28.7669 61.8097C32.9396 65.424 38.5989 67.4545 44.5 67.4545ZM33.375 19.2727C33.375 16.717 34.5471 14.266 36.6334 12.4588C38.7198 10.6516 41.5495 9.63636 44.5 9.63636C47.4505 9.63636 50.2802 10.6516 52.3666 12.4588C54.4529 14.266 55.625 16.717 55.625 19.2727V48.1818C55.625 50.7375 54.4529 53.1886 52.3666 54.9958C50.2802 56.8029 47.4505 57.8182 44.5 57.8182C41.5495 57.8182 38.7198 56.8029 36.6334 54.9958C34.5471 53.1886 33.375 50.7375 33.375 48.1818V19.2727ZM89 48.1818C89 46.904 88.414 45.6784 87.3708 44.7749C86.3276 43.8713 84.9128 43.3636 83.4375 43.3636C81.9622 43.3636 80.5474 43.8713 79.5042 44.7749C78.461 45.6784 77.875 46.904 77.875 48.1818C77.875 55.849 74.3587 63.2021 68.0997 68.6236C61.8407 74.0451 53.3516 77.0909 44.5 77.0909C35.6484 77.0909 27.1593 74.0451 20.9003 68.6236C14.6413 63.2021 11.125 55.849 11.125 48.1818C11.125 46.904 10.539 45.6784 9.49578 44.7749C8.45261 43.8713 7.03777 43.3636 5.5625 43.3636C4.08723 43.3636 2.67239 43.8713 1.62922 44.7749C0.586048 45.6784 0 46.904 0 48.1818C0.00982222 57.5642 3.97008 66.6214 11.1383 73.6554C18.3066 80.6894 28.1906 85.2172 38.9375 86.39V96.3636H27.8125C26.3372 96.3636 24.9224 96.8713 23.8792 97.7748C22.836 98.6784 22.25 99.904 22.25 101.182C22.25 102.46 22.836 103.685 23.8792 104.589C24.9224 105.492 26.3372 106 27.8125 106H61.1875C62.6628 106 64.0776 105.492 65.1208 104.589C66.1639 103.685 66.75 102.46 66.75 101.182C66.75 99.904 66.1639 98.6784 65.1208 97.7748C64.0776 96.8713 62.6628 96.3636 61.1875 96.3636H50.0625V86.39C60.8094 85.2172 70.6934 80.6894 77.8617 73.6554C85.0299 66.6214 88.9902 57.5642 89 48.1818Z" fill="url(#paint0_linear_415_5242)"/>
<defs>
<linearGradient id="paint0_linear_415_5242" x1="23.8393" y1="10.8718" x2="69.3913" y2="118.081" gradientUnits="userSpaceOnUse">
<stop stop-color="#D70F0F"/>
<stop offset="1" stop-color="#1E2029"/>
</linearGradient>
</defs>
</svg>
